<svg id="Capa_1" data-name="Capa 1" xmlns="http://www.w3.org/2000/svg" viewBox="0 0 176.25 24.8"><defs><style>.cls-1{font-size:26.59px;fill:#662483;font-family:ScriptMTBold, Script MT Bold;}.cls-2{letter-spacing:-0.04em;}.cls-3{fill:#1d71b8;}</style></defs><text class="cls-1" transform="matrix(0.75, 0, -0.53, 0.85, 3.55, 19.12)">Lucy Lafuente <tspan class="cls-2" x="162.32" y="0">I</tspan><tspan x="177.19" y="0">ndo</tspan></text><path class="cls-3" d="M253.72,348.54H251.3V345h2.32v.37h-1.79v1.19h1.65v.38h-1.65v1.24h1.89Z" transform="translate(-136.07 -324.27)"/><path class="cls-3" d="M254.22,348.35l.25-.31a1.81,1.81,0,0,0,.42.16,1.51,1.51,0,0,0,.44.06,1,1,0,0,0,.51-.1.32.32,0,0,0,0-.55,1.36,1.36,0,0,0-.49-.18,2.19,2.19,0,0,1-.84-.3.58.58,0,0,1-.22-.46.61.61,0,0,1,.3-.52,1.46,1.46,0,0,1,.85-.21,1.94,1.94,0,0,1,.49.05,1.72,1.72,0,0,1,.49.18l-.24.31a1.75,1.75,0,0,0-.4-.16,1.47,1.47,0,0,0-.36,0,1,1,0,0,0-.48.09.28.28,0,0,0-.16.26.27.27,0,0,0,.17.26,2.42,2.42,0,0,0,.55.17,1.65,1.65,0,0,1,.74.29.57.57,0,0,1,.25.49.65.65,0,0,1-.32.56,1.71,1.71,0,0,1-.88.2,2.78,2.78,0,0,1-.58-.06A2.82,2.82,0,0,1,254.22,348.35Z" transform="translate(-136.07 -324.27)"/><path class="cls-3" d="M259.6,348.39a2.3,2.3,0,0,1-.46.16,2.46,2.46,0,0,1-.49.05,1.83,1.83,0,0,1-1.13-.33,1.1,1.1,0,0,1-.44-.95,1.24,1.24,0,0,1,.44-1,1.8,1.8,0,0,1,1.22-.38,2.45,2.45,0,0,1,.48,0,1.93,1.93,0,0,1,.46.16l-.22.3a1.32,1.32,0,0,0-.35-.12,1.61,1.61,0,0,0-.39,0,1.16,1.16,0,0,0-.82.28,1,1,0,0,0-.29.72.91.91,0,0,0,.3.73,1.21,1.21,0,0,0,.78.25,1.86,1.86,0,0,0,.33,0,2.3,2.3,0,0,0,.34-.12Z" transform="translate(-136.07 -324.27)"/><path class="cls-3" d="M263,348.54h-.53v-.4h0a1.15,1.15,0,0,1-.41.35,1.57,1.57,0,0,1-.6.11,1.23,1.23,0,0,1-.87-.27,1,1,0,0,1-.29-.81V346h.52v1.45a.86.86,0,0,0,.19.61.83.83,0,0,0,.6.2.91.91,0,0,0,.63-.22.75.75,0,0,0,.24-.58V346H263Z" transform="translate(-136.07 -324.27)"/><path class="cls-3" d="M264,348.54v-3.77h.52v3.77Z" transform="translate(-136.07 -324.27)"/><path class="cls-3" d="M267.15,348.51l-.26.07-.3,0a.94.94,0,0,1-.61-.18.66.66,0,0,1-.22-.53v-1.55h-.56V346h.56v-.63l.53-.13V346h.82v.34h-.82v1.51a.4.4,0,0,0,.1.31.38.38,0,0,0,.3.1l.18,0,.15,0Z" transform="translate(-136.07 -324.27)"/><path class="cls-3" d="M269.17,348.6a1.77,1.77,0,0,1-1.15-.35,1.18,1.18,0,0,1-.44-.95,1.2,1.2,0,0,1,.45-1,1.89,1.89,0,0,1,1.22-.36,1.64,1.64,0,0,1,1.14.35,1.33,1.33,0,0,1,0,1.95A1.84,1.84,0,0,1,269.17,348.6Zm0-.34A1.1,1.1,0,0,0,270,348a1.12,1.12,0,0,0,0-1.46,1.31,1.31,0,0,0-1.58,0,1,1,0,0,0-.29.73.91.91,0,0,0,.3.72A1.16,1.16,0,0,0,269.21,348.26Z" transform="translate(-136.07 -324.27)"/><path class="cls-3" d="M273.24,346.34l-.11,0H273a.79.79,0,0,0-.63.26,1,1,0,0,0-.22.66v1.3h-.53V346h.53v.5h0a.86.86,0,0,1,.34-.41A1,1,0,0,1,273,346h.17l.12,0Z" transform="translate(-136.07 -324.27)"/><path class="cls-3" d="M276.21,348.54h-.52v-.4h0a1,1,0,0,1-.42.35,1.41,1.41,0,0,1-.57.11,1.23,1.23,0,0,1-.75-.21.66.66,0,0,1,0-1.09,1.58,1.58,0,0,1,.81-.27l.93-.1v-.06a.54.54,0,0,0-.19-.46.88.88,0,0,0-.51-.13,1.61,1.61,0,0,0-.49.07,1.42,1.42,0,0,0-.44.23l-.31-.24a2,2,0,0,1,.58-.31,2.5,2.5,0,0,1,.69-.09,1.51,1.51,0,0,1,.9.23.89.89,0,0,1,.29.72Zm-.52-1v-.26l-.79.09a1.49,1.49,0,0,0-.54.14.35.35,0,0,0-.18.32.41.41,0,0,0,.17.35.7.7,0,0,0,.42.12,1,1,0,0,0,.67-.21A.7.7,0,0,0,275.69,347.51Z" transform="translate(-136.07 -324.27)"/><path class="cls-3" d="M282.3,348.36a2.68,2.68,0,0,1-.64.18,3.69,3.69,0,0,1-.69.06,2.38,2.38,0,0,1-1.61-.49,1.6,1.6,0,0,1-.58-1.28,1.68,1.68,0,0,1,.65-1.39,2.55,2.55,0,0,1,1.67-.52,3.91,3.91,0,0,1,.61,0,4.6,4.6,0,0,1,.58.16l-.2.34a3.13,3.13,0,0,0-.48-.13,4.06,4.06,0,0,0-.51,0,1.89,1.89,0,0,0-1.28.41,1.36,1.36,0,0,0-.47,1.1,1.3,1.3,0,0,0,.45,1,1.77,1.77,0,0,0,1.2.39,3.31,3.31,0,0,0,.55-.05,2.72,2.72,0,0,0,.54-.15Z" transform="translate(-136.07 -324.27)"/><path class="cls-3" d="M285.77,348.54h-.52v-1.46a.86.86,0,0,0-.19-.6.77.77,0,0,0-.57-.2,1,1,0,0,0-.65.23.76.76,0,0,0-.26.59v1.44h-.52v-3.77h.52v1.65h0a1.23,1.23,0,0,1,.46-.36,1.48,1.48,0,0,1,.61-.12,1.18,1.18,0,0,1,.83.25,1,1,0,0,1,.28.78Z" transform="translate(-136.07 -324.27)"/><path class="cls-3" d="M287,345.39a.44.44,0,0,1-.27-.09.23.23,0,0,1-.1-.2.26.26,0,0,1,.1-.21.5.5,0,0,1,.27-.08.46.46,0,0,1,.27.08.28.28,0,0,1,.11.21.24.24,0,0,1-.11.2A.4.4,0,0,1,287,345.39Zm.26,3.15h-.53V346h.53Z" transform="translate(-136.07 -324.27)"/><path class="cls-3" d="M288.33,348.54v-3.77h.53v3.77Z" transform="translate(-136.07 -324.27)"/><path class="cls-3" d="M292.54,347.36h-2.31a.85.85,0,0,0,.29.66,1.18,1.18,0,0,0,.79.24,2.28,2.28,0,0,0,.44-.05,2,2,0,0,0,.44-.17l.24.29a2.55,2.55,0,0,1-.56.21,2.77,2.77,0,0,1-.6.06,1.76,1.76,0,0,1-1.16-.34,1.2,1.2,0,0,1-.42-1,1.26,1.26,0,0,1,.42-1,1.57,1.57,0,0,1,1.09-.37,1.41,1.41,0,0,1,1,.32,1.19,1.19,0,0,1,.35.9ZM292,347a.71.71,0,0,0-.21-.55.89.89,0,0,0-.6-.2,1,1,0,0,0-.63.2.84.84,0,0,0-.32.55Z" transform="translate(-136.07 -324.27)"/><path class="cls-3" d="M296,348.54h-.52v-1.45a.86.86,0,0,0-.19-.61.77.77,0,0,0-.57-.2,1,1,0,0,0-.65.23.75.75,0,0,0-.26.58v1.45h-.52V346h.52v.42h0a1.13,1.13,0,0,1,.45-.36,1.49,1.49,0,0,1,.62-.12,1.14,1.14,0,0,1,.82.27,1,1,0,0,1,.28.78Z" transform="translate(-136.07 -324.27)"/><path class="cls-3" d="M299.34,348.54h-.52v-.4h0a1.06,1.06,0,0,1-.41.35,1.5,1.5,0,0,1-.58.11,1.22,1.22,0,0,1-.74-.21.66.66,0,0,1,0-1.09,1.58,1.58,0,0,1,.81-.27l.94-.1v-.06a.54.54,0,0,0-.2-.46.84.84,0,0,0-.51-.13,1.61,1.61,0,0,0-.49.07,1.69,1.69,0,0,0-.44.23l-.31-.24a2.09,2.09,0,0,1,.59-.31,2.4,2.4,0,0,1,.69-.09,1.48,1.48,0,0,1,.89.23.87.87,0,0,1,.3.72Zm-.52-1v-.26l-.79.09a1.49,1.49,0,0,0-.54.14.34.34,0,0,0-.19.32.4.4,0,0,0,.18.35.69.69,0,0,0,.41.12,1,1,0,0,0,.68-.21A.73.73,0,0,0,298.82,347.51Z" transform="translate(-136.07 -324.27)"/></svg>